<svg width="166.69mm" height="110.75mm" version="1.1" viewBox="0 0 166.69 110.75" xml:space="preserve" xmlns="http://www.w3.org/2000/svg"><g transform="translate(-21.657 -165.43)"><path id="logo-text" d="m72.595 165.43c-0.18566 0-0.37478 0.0153-0.56929 0.0427-0.74951 0.1111-1.4714 0.30452-2.1654 0.58211-0.66622 0.24983-1.3328 0.5688-1.999 0.95741-2.2762 1.3879-4.8428 3.8312-7.7019 7.3287-1.8042 2.2206-3.7202 5.0935-5.7465 8.6187-3.4373 6.0152-6.4139 13.044-8.9301 21.085-2.3716 2.123-5.1905 4.874-8.0409 8.0772-2.4387 2.7404-4.5249 5.3725-6.2466 7.7413-2.1691 2.9692-3.2184 4.9776-3.7401 6.7999-0.28546 1.0031-0.30659 1.5862-0.19373 1.6173 0.11237 0.0312 0.34798-0.4889 0.80494-1.3774 0.92458-1.8058 1.8422-3.1969 4.2476-6.1815 1.8412-2.2734 3.9324-4.776 6.3596-7.5036 2.1029-2.3631 4.1505-4.5337 5.9779-6.4214-0.27744 0.95114-0.54818 1.9156-0.81351 2.8935-1.4989 5.6349-2.2485 10.119-2.2485 13.449 0 4.0249 1.0547 6.5926 3.1644 7.7029 0.44394 0.24977 0.90128 0.3742 1.3732 0.3742 0.47184 0.0279 0.90246-0.0279 1.2911-0.1664 0.41618-0.13875 0.84698-0.38862 1.2911-0.74951 0.44394-0.3331 0.81839-0.65209 1.1237-0.9574 0.30519-0.30534 0.653-0.72214 1.0416-1.2495 0.38842-0.52739 0.67996-0.94314 0.87426-1.2485 0.19421-0.27757 0.45801-0.66671 0.79107-1.1664 0.08317-0.13874 0.15248-0.24939 0.20785-0.33266 0.9715-1.4712 2.2761-3.7061 3.9138-6.704 0.65746-1.1944 1.2548-2.2614 1.7911-3.2006 0.0729 1.8504 0.68357 3.0417 1.8316 3.5748 0.3052 0.13873 0.62432 0.20895 0.9574 0.20895 0.33295 0.0279 0.66588-0.0279 0.99898-0.16621 0.3329-0.11109 0.62446-0.22269 0.87424-0.33373 0.27744-0.13874 0.58274-0.34716 0.91583-0.62476 0.36071-0.27758 0.62457-0.4849 0.79107-0.6237 0.19421-0.13874 0.44442-0.36101 0.74951-0.66633 1.0885-0.96565 2.1614-2.0367 3.2166-3.2134-0.12232 0.48253-0.22336 0.94224-0.30188 1.3806-0.13874 0.74945-0.26337 1.5544-0.37435 2.4148-0.13869 0.83275-0.19421 1.6664-0.1664 2.4991 0 0.83276 0.06906 1.6514 0.20785 2.4564 0.47194 2.8591 1.4714 4.3307 2.998 4.4139 0.58293 0.0279 1.1379-0.11135 1.6653-0.4169 0.52745-0.30532 0.94315-0.63812 1.2485-0.99897 0.3052-0.33315 0.653-0.79135 1.0416-1.3743 0.74945-1.0548 1.6096-2.387 2.5812-3.997 0.99931-1.61 1.9711-3.1368 2.9148-4.5802 0.22053-0.34346 0.43923-0.67788 0.6567-1.0032-0.04226 0.19983-0.08092 0.39495-0.11526 0.58638-0.13874 0.74946-0.26428 1.5543-0.37526 2.4148-0.13874 0.83274-0.19421 1.6663-0.1666 2.4991 0 0.83275 0.06906 1.6514 0.20785 2.4564 0.47184 2.8591 1.4713 4.3307 2.998 4.4139 0.58295 0.0279 1.1379-0.11136 1.6653-0.4169 0.5274-0.30533 0.94417-0.63814 1.2495-0.99897 0.3052-0.33316 0.65195-0.79134 1.0405-1.3743 0.74949-1.0548 1.6096-2.387 2.5812-3.997 0.99929-1.61 1.9711-3.1368 2.9149-4.5802 0.32402-0.50525 0.64517-0.99149 0.96274-1.4574-0.80823 3.6882-1.2122 6.756-1.2122 9.2019 0 4.0249 1.0548 6.5926 3.1643 7.7029 0.44393 0.24986 0.90237 0.37425 1.3743 0.37425 0.47189 0.0279 0.90143-0.0279 1.29-0.16641 0.41618-0.13875 0.84694-0.38861 1.2911-0.74951 0.44394-0.3331 0.81841-0.65206 1.1238-0.9574 0.30519-0.30534 0.65299-0.72211 1.0416-1.2495 0.38842-0.5274 0.67994-0.94313 0.87423-1.2485 0.19421-0.27758 0.45801-0.66671 0.79109-1.1664 0.0832-0.13893 0.15248-0.24944 0.20786-0.33268 0.9715-1.4712 2.2761-3.7061 3.9138-6.7039 0.62125-1.1286 1.1885-2.1431 1.7016-3.0439 7e-4 0.0987 1e-3 0.19771 4e-3 0.2964 0.0555 2.2762 0.84763 3.8018 2.3743 4.5791 0.72168 0.38862 1.4989 0.56941 2.3316 0.54163 0.83275 0 1.61-0.18073 2.3317-0.54163 1.1103-0.55515 2.165-1.3175 3.1643-2.289 1.027-0.9715 1.4994-2.1147 3.1458-3.5303 0.99667-0.85633 1.83-1.5618 2.297-2.1153 1.8709-1.9438 4.7507-4.0272 6.8865-6.5272 2.7016-3.1624 4.875-5.1021 3.9394-4.0472-0.22159 0.24921-3.2517 2.6222-4.8369 3.9816-2.0944 1.796-4.0999 3.6935-6.1736 5.5134-0.9825 0.86224-1.9915 1.6941-2.9699 2.561-1.2498 1.1074-2.8994 2.6783-3.7043 3.3722-2.2762 2.0263-3.7753 2.5962-4.497 1.708-0.61068-0.805-0.76379-2.2074-0.45849-4.206 0.27763-1.7487 0.94424-3.3999 1.999-4.9544h0.0413c1.6377 0.0832 3.0816-0.3197 4.3307-1.208 0.41638-0.30534 0.79066-0.63812 1.1237-0.99898 0.3609-0.3609 0.65215-0.79147 0.87424-1.2911 0.24988-0.49963 0.36149-0.98447 0.33368-1.4564-0.0832-0.77722-0.48624-1.3471-1.208-1.708-0.69395-0.36086-1.4573-0.48525-2.2901-0.37421-1.8042 0.27758-3.4693 1.2356-4.996 2.8733-1.2769 1.3324-2.2902 2.9006-3.0396 4.7049-0.2137 0.53419-0.39393 1.0682-0.53946 1.6024-0.80644 1.2727-1.8064 2.9587-3.0001 5.0589-1.4712 2.637-2.3314 4.1638-2.5812 4.5802-1.2769 2.1374-2.4018 3.8311-3.3733 5.0802-0.36072 0.44413-0.59583 0.73546-0.70686 0.87425-0.0832 0.13874-0.29157 0.38862-0.62479 0.74949-0.33295 0.36081-0.65206 0.63837-0.95739 0.83267-0.27744 0.19436-0.56996 0.33257-0.8753 0.41579-0.33295 0.11109-0.62445 0.0971-0.87427-0.0413-0.22197-0.11109-0.38794-0.33323-0.49892-0.66635-0.11109-0.33314-0.20876-0.66588-0.29204-0.99898-0.05555-0.30534-0.08319-0.7083-0.08319-1.208v-1.0821c0.02831-0.19431 0.05555-0.47184 0.08319-0.83267 0.22197-3.1644 0.9025-6.9676 2.0406-11.409 0.88827-3.5252 1.9154-6.9946 3.0812-10.409 6.0512-5.7182 10.867-10.562 14.447-14.532 2.2762-2.526 4.2474-4.9268 5.9129-7.2029 1.6655-2.2761 3.0253-4.6216 4.0802-7.0366 0.27758-0.61065 0.49979-1.138 0.66634-1.5821 0.16659-0.47189 0.33348-1.0407 0.50003-1.7069 0.1943-0.69394 0.27729-1.333 0.24949-1.9159 0-0.61068-0.12445-1.1519-0.37426-1.6238-0.36086-0.74945-0.86057-1.2906-1.499-1.6237-0.63845-0.3331-1.3466-0.4437-2.1238-0.33262-0.74945 0.11096-1.4714 0.30453-2.1653 0.58211-0.66617 0.24977-1.3318 0.5688-1.998 0.9574-2.2762 1.3879-4.8438 3.8312-7.7029 7.3287-1.8043 2.2206-3.7203 5.0935-5.7465 8.6187-4.2192 7.3836-7.7438 16.293-10.575 26.73-0.0912 0.34342-0.17956 0.68336-0.26567 1.0182-0.63334 0.71733-1.2807 1.5299-1.9415 2.4383-0.63843 0.91605-1.1658 1.6932-1.5821 2.3317-0.41618 0.63842-0.98518 1.54-1.7069 2.7059-0.72171 1.1381-1.2491 1.9578-1.5822 2.4575-0.02833 0.0556-0.09769 0.16602-0.20881 0.33262-0.11102 0.1666-0.22149 0.33343-0.33247 0.50001-0.11104 0.1943-0.25016 0.41651-0.41714 0.66634-0.13874 0.24979-0.2906 0.4848-0.45758 0.70685-0.13869 0.22206-0.30568 0.45811-0.50002 0.70794-0.19421 0.24987-0.36119 0.4582-0.50003 0.62475-0.13874 0.16659-0.29064 0.31965-0.45758 0.45849-0.1664 0.1666-0.30568 0.26327-0.41666 0.29103-0.11104 0.0279-0.22149 0.0279-0.33247 0-0.05552-0.0279-0.11104-0.0969-0.1664-0.2079-0.02833-0.0833-0.05552-0.19493-0.08319-0.33367 0-0.13875-0.01345-0.27701-0.04226-0.4158v-0.45844c0.02833-0.16659 0.04226-0.3186 0.04226-0.45738v-0.37527c0.02833-0.11096 0.04226-0.19387 0.04226-0.24949 0-0.86049 0.11065-1.929 0.33247-3.2059 0.24968-1.5822 0.59642-3.1643 1.0406-4.7465 0.44394-1.5822 1.0554-3.3312 1.8327-5.2465 0.80498-1.9153 1.4153-3.3453 1.8316-4.2891 0.44394-0.97152 1.2075-2.5951 2.2901-4.8712 0.66622 0.0832 1.2914 0.16621 1.8743 0.24944 0.27744 0.0555 0.49871-0.0274 0.66527-0.24944 0.16641-0.22207 0.19421-0.4581 0.08319-0.70794-0.08319-0.27758-0.26289-0.44346-0.54052-0.49895-0.47194-0.0832-0.94396-0.16737-1.4159-0.25054 0.47189-1.027 0.88868-1.9287 1.2495-2.7059 0.24968-0.55516 0.24968-1.0549 0-1.499-0.22197-0.44413-0.54209-0.80563-0.9585-1.0832-0.41618-0.30534-0.88737-0.41594-1.4148-0.33257-0.49966 0.0556-0.91639 0.33305-1.2495 0.83265-0.91601 1.3601-1.79 2.8455-2.6227 4.4554-0.74945 0.0279-1.4437 0.0969-2.0822 0.2079-0.36071 0.0555-0.55542 0.29156-0.58322 0.70791 0 0.38861 0.18052 0.58318 0.54166 0.58318 0.30519 0 0.74972 0.0135 1.3327 0.0413-1.1381 2.3594-2.2215 5.0101-3.2486 7.9524-0.33291 0.91601-0.61062 1.6932-0.83267 2.3316-0.06392 0.20963-0.13168 0.43429-0.20458 0.67381-0.61292 0.69941-1.238 1.4879-1.8764 2.3658-0.63842 0.91602-1.1658 1.6932-1.5821 2.3316-0.41618 0.63845-0.98627 1.54-1.708 2.7059-0.7217 1.138-1.2491 1.9578-1.5822 2.4575-0.02833 0.0556-0.09691 0.16603-0.20785 0.33266-0.11102 0.1666-0.22149 0.33349-0.33247 0.50001-0.11104 0.19432-0.25016 0.41651-0.41709 0.66636-0.13869 0.24982-0.29204 0.48478-0.45849 0.70686-0.1387 0.22206-0.30472 0.45805-0.49894 0.70792-0.19421 0.24982-0.36119 0.4582-0.50002 0.62475-0.1387 0.1666-0.29064 0.31964-0.45758 0.45848-0.1664 0.1666-0.30568 0.26332-0.41666 0.29103-0.11108 0.0279-0.22149 0.0279-0.33247 0-0.05552-0.0279-0.112-0.0969-0.16736-0.2079-0.02833-0.0832-0.05552-0.19493-0.08317-0.33367 0-0.13873-0.01345-0.27705-0.04226-0.41579v-0.45826c0.02833-0.16658 0.04226-0.31858 0.04226-0.45738v-0.37526c0.02833-0.11109 0.04226-0.19387 0.04226-0.24948 0-0.8605 0.11141-1.929 0.33391-3.2059 0.24968-1.5822 0.59646-3.1643 1.0406-4.7465 0.44394-1.5822 1.0544-3.3312 1.8317-5.2465 0.80494-1.9153 1.4163-3.3453 1.8327-4.2891 0.44394-0.97153 1.2075-2.5951 2.2901-4.8712 0.66616 0.0832 1.2903 0.16621 1.8732 0.24949 0.27744 0.0556 0.49983-0.0274 0.66636-0.24949 0.1664-0.22206 0.19421-0.45814 0.08319-0.70793-0.08319-0.27758-0.26428-0.44345-0.54158-0.49895-0.47194-0.0832-0.94294-0.16737-1.4148-0.25054 0.47189-1.027 0.88762-1.9286 1.2485-2.7059 0.24973-0.55515 0.24973-1.0549 0-1.499-0.22197-0.44408-0.54103-0.80561-0.9574-1.0832-0.41618-0.30532-0.88844-0.41593-1.4158-0.33266-0.49965 0.0555-0.91535 0.33305-1.2485 0.83267-0.91598 1.3601-1.791 2.8455-2.6238 4.4554-0.74949 0.0279-1.4427 0.0969-2.0811 0.2079-0.36071 0.0555-0.55544 0.29154-0.58318 0.70791 0 0.38862 0.17956 0.58318 0.54052 0.58318 0.30519 0 0.74978 0.0135 1.3327 0.0413-1.1381 2.3594-2.2204 5.0101-3.2475 7.9524-0.33295 0.91601-0.6106 1.6932-0.83269 2.3317-0.04707 0.15396-0.09634 0.31599-0.14806 0.48616-0.01921 0.0174-0.04226 0.0355-0.05974 0.0555-0.05552 0.0556-0.41714 0.44361-1.0832 1.1653-0.66617 0.72171-1.3179 1.4022-1.9564 2.0406-0.61067 0.63841-1.305 1.3178-2.0822 2.0396-0.74945 0.69394-1.4161 1.1937-1.999 1.499-0.55515 0.27753-0.94324 0.27753-1.1653 0-0.13874-0.1666-0.04226-0.92995 0.29108-2.2901 0.1664-0.58288 0.4728-1.4984 0.91691-2.7475 0.08317-0.24982 0.76268-1.8734 2.0396-4.8712 0.3052-0.74946 0.22245-1.4023-0.2492-1.9575-0.47194-0.55514-1.0833-0.80501-1.8328-0.74948-0.72169 0.0556-1.249 0.44466-1.5821 1.1664-1.075 2.3368-1.7954 4.4272-2.1622 6.2722-0.79172 1.2565-1.7639 2.8992-2.917 4.9277-1.4711 2.637-2.3313 4.1638-2.5812 4.5802-1.2768 2.1374-2.4017 3.8311-3.3733 5.0802-0.36066 0.44407-0.5969 0.73545-0.70791 0.87425-0.08317 0.13874-0.29064 0.3886-0.62371 0.74949-0.33295 0.36081-0.65315 0.63834-0.95849 0.83267-0.27744 0.19435-0.56891 0.33256-0.87421 0.41579-0.3329 0.11109-0.62445 0.0971-0.87424-0.0413-0.22197-0.11109-0.3889-0.33329-0.50004-0.66636-0.11104-0.33309-0.20785-0.66587-0.29108-0.99897-0.05552-0.30534-0.08319-0.7083-0.08319-1.208v-1.0821c0.02833-0.1943 0.05552-0.47184 0.08319-0.83266 0.22197-3.1644 0.90256-6.9676 2.0406-11.409 0.88823-3.5253 1.9153-6.9946 3.0812-10.409 6.0512-5.7181 10.867-10.562 14.447-14.532 2.2761-2.526 4.2474-4.9267 5.9129-7.2029 1.6655-2.2762 3.0254-4.6216 4.0801-7.0366 0.27744-0.61067 0.4998-1.138 0.66635-1.5822 0.1664-0.47189 0.33343-1.0407 0.50002-1.7069 0.19421-0.69395 0.27696-1.333 0.24925-1.9159 0-0.61067-0.12554-1.1519-0.37526-1.6238-0.36071-0.74945-0.85954-1.2906-1.498-1.6237-0.47885-0.24987-0.99757-0.37526-1.5544-0.37526zm0.64609 2.8668c0.20646-5e-3 0.37008 0.0514 0.49152 0.17269 0.1664 0.1387 0.27696 0.34717 0.33247 0.62478 0.13874 0.66618-0.04226 1.7347-0.54051 3.2059-0.86049 2.4982-2.096 4.9139-3.7059 7.2455-1.61 2.3039-3.6089 4.8014-5.996 7.494-3.1452 3.5519-7.1909 7.7003-12.137 12.444 0.04707-0.0813 0.06103-0.13566 0.03745-0.16102-0.02353-0.0298-0.09922-0.0192-0.21962 0.0327 1.0899-2.9133 2.2672-5.7142 3.5322-8.4023 2.526-5.385 5.5381-10.312 9.0356-14.781 1.1936-1.4989 2.2621-2.7759 3.2059-3.8306 0.9715-1.0548 2.0124-1.9703 3.1227-2.7475 0.1664-0.13874 0.33247-0.26428 0.49895-0.37527 0.19421-0.11096 0.4303-0.24925 0.70791-0.41579 0.3052-0.1666 0.56902-0.27821 0.79107-0.33367 0.24973-0.0832 0.4997-0.13855 0.74949-0.1664 0.03314-4e-3 0.062-5e-3 0.09177-5e-3zm51.421 0c0.20645-5e-3 0.37002 0.0514 0.4915 0.17269 0.1664 0.1387 0.27815 0.34717 0.33366 0.62478 0.1387 0.66618-0.0418 1.7347-0.5416 3.2059-0.86049 2.4982-2.096 4.9139-3.7059 7.2455-1.61 2.3039-3.6089 4.8014-5.996 7.494-3.2199 3.6363-7.3836 7.8977-12.491 12.783 1.1381-3.0812 2.3736-6.038 3.7059-8.8693 2.526-5.385 5.5381-10.312 9.0356-14.781 1.1936-1.4989 2.2621-2.7759 3.2059-3.8307 0.9715-1.0548 2.0124-1.9702 3.1227-2.7475 0.1666-0.13874 0.33349-0.26427 0.50001-0.37531 0.1943-0.11109 0.42929-0.24919 0.70686-0.41579 0.30534-0.1666 0.56902-0.27821 0.7911-0.33367 0.24982-0.0832 0.49967-0.13875 0.74949-0.16641 0.0312-4e-3 0.0622-5e-3 0.0917-5e-3zm-59.58 30.755c-0.18758 0-0.37195 0.0355-0.55227 0.10454-0.33295 0.13875-0.58297 0.38862-0.74949 0.74953-0.05552 0.13874-0.16602 0.47155-0.33247 0.99895-0.1664 0.55517-0.22197 1.0134-0.1664 1.3743 0.05552 0.41638 0.26289 0.70771 0.62371 0.87424 0.38842 0.13875 0.76391 0.0973 1.1248-0.12484 0.24968-0.19431 0.49968-0.49946 0.74953-0.91581 0.36071-0.58294 0.56925-0.94443 0.62474-1.0832 0.1387-0.3331 0.12366-0.69351-0.04226-1.0821-0.1387-0.38861-0.37382-0.65229-0.70684-0.79107-0.19421-0.0694-0.38516-0.10455-0.57253-0.10455zm55.328 6.5174h1e-3v1e-3h1e-3l1e-3 1e-3c1.9e-4 4.3e-4 9e-4 4e-3 1e-3 4e-3 5e-3 0.0303-0.0365 0.15396-0.13218 0.36887-0.27763 0.61068-0.72203 1.1242-1.3327 1.5406-0.61067 0.38861-1.2901 0.65229-2.0396 0.79107 0.19431-0.1943 0.36018-0.36123 0.49895-0.5 0.6107-0.63846 1.138-1.1105 1.5822-1.4158 0.44408-0.33311 0.7918-0.54152 1.0416-0.62479 0.25592-0.10228 0.38103-0.15722 0.37743-0.16525zm22.903 11.2c-0.27004-0.012-0.54261-4e-3 -0.81774 0.0154-0.55023 0.0409-1.0802 0.15345-1.5896 0.33689-2.0787 0.67252-4.1878 2.1801-6.3276 4.5237-1.6914 1.8545-3.1495 3.9636-4.3723 6.3276-1.2024 2.364-2.3939 5.1157-3.5759 8.2541-1.2635 3.3626-2.2622 6.5315-2.9959 9.5069-0.19162 0.76637-0.36402 1.4999-0.51816 2.2016-0.012 9e-3 -0.0216 0.0196-0.0322 0.0298-0.46872 0.52986-0.94701 1.1304-1.4361 1.8028-0.46866 0.67252-0.8564 1.2435-1.1621 1.7122-0.30568 0.46872-0.7239 1.1314-1.2538 1.9873-0.52985 0.83557-0.91648 1.436-1.161 1.8028-0.0202 0.0409-0.071 0.12284-0.15247 0.24516-0.0815 0.12231-0.16371 0.2445-0.24521 0.36677-0.0815 0.14273-0.18375 0.30597-0.30601 0.48937-0.10188 0.18337-0.21352 0.35615-0.33584 0.51922-0.10188 0.16296-0.22408 0.33575-0.36676 0.51921-0.14273 0.18335-0.26485 0.33617-0.36677 0.45848-0.10187 0.12231-0.21355 0.23499-0.33587 0.33689-0.12231 0.12231-0.22442 0.19393-0.30597 0.21429-0.0817 0.0202-0.16372 0.0202-0.24521 0-0.0408-0.0202-0.0808-0.072-0.1215-0.15359-0.0202-0.061-0.0413-0.14215-0.0618-0.24415 0-0.10187-9e-3 -0.20406-0.0298-0.306v-0.33584c0.0202-0.12231 0.0298-0.23499 0.0298-0.3369v-0.27503c0.0202-0.0815 0.0312-0.14273 0.0312-0.18335 0-0.63176 0.0811-1.4166 0.24416-2.3541 0.18336-1.1616 0.43837-2.3226 0.76441-3.4842 0.32609-1.1616 0.77488-2.4458 1.3455-3.852 0.59098-1.4061 1.0387-2.4554 1.3444-3.1483 0.32608-0.71326 0.88653-1.9058 1.6813-3.5769 0.48911 0.0613 0.94843 0.12231 1.3764 0.18337 0.20375 0.0409 0.36599-0.0202 0.48829-0.18337 0.12231-0.16293 0.14331-0.33578 0.0618-0.51921-0.061-0.20387-0.19391-0.32604-0.39763-0.36677-0.34645-0.061-0.69305-0.12217-1.0395-0.18335 0.34644-0.75401 0.65195-1.4167 0.9169-1.9873 0.18335-0.40753 0.18335-0.77419 0-1.1002-0.16296-0.32608-0.39693-0.59155-0.7026-0.79533-0.30568-0.22408-0.65229-0.3052-1.0395-0.24416-0.3668 0.0409-0.67233 0.24516-0.91689 0.61197-0.6725 0.99859-1.3152 2.0879-1.9265 3.2699-0.55023 0.0202-1.0591 0.072-1.5278 0.15339-0.26495 0.0409-0.40821 0.21352-0.42863 0.5192 0 0.28532 0.13286 0.42861 0.39765 0.42861 0.22417 0 0.55077 9e-3 0.97873 0.0298-0.83555 1.7322-1.631 3.6791-2.385 5.8393-0.24449 0.67251-0.44787 1.2425-0.61089 1.7112-0.14274 0.46878-0.31649 1.0397-0.52028 1.7122-0.20382 0.67249-0.35653 1.2941-0.45844 1.8647-0.10187 0.55026-0.19354 1.1413-0.27504 1.773-0.10188 0.61137-0.14195 1.2224-0.12151 1.8338 0 0.61138 0.0506 1.2129 0.15249 1.8039 0.34644 2.0991 1.0797 3.179 2.2005 3.24 0.42799 0.0202 0.83567-0.0818 1.2229-0.30601 0.38722-0.22419 0.69274-0.46857 0.9169-0.7335 0.22417-0.24455 0.47913-0.58062 0.7644-1.0086 0.55025-0.7744 1.1824-1.752 1.8956-2.934 0.73363-1.182 1.4468-2.3029 2.1398-3.3626 0.29761-0.46395 0.5916-0.90533 0.88169-1.3241-0.0418 0.23177-0.0815 0.45926-0.1183 0.68235 0 0.0409-0.0506 0.30514-0.15248 0.79425-0.10188 0.4891-0.15247 0.83572-0.15247 1.0395-0.0202 0.20382-0.0312 0.49875-0.0312 0.88597-0.0202 0.38721 0.0303 0.70324 0.15248 0.94781 0.12231 0.26491 0.29612 0.47876 0.52028 0.6418 0.28531 0.20373 0.5708 0.27538 0.85613 0.21429 0.28531-0.0409 0.53919-0.18298 0.76336-0.42752 0.0202 0 0.0312-0.012 0.0312-0.0312 0.0202 0 0.0403-0.012 0.0609-0.0312 0.22423-0.24453 0.29584-0.55007 0.2143-0.9169 1.5284-3.444 3.0265-6.0525 4.4938-7.8255 1.1005-1.345 1.8032-1.8033 2.1088-1.3753 0.061 0.061 0.0917 0.16332 0.0917 0.306 0.0202 0.14273 0.012 0.30487-0.0298 0.48831-0.0202 0.18336-0.0413 0.34668-0.0618 0.48934-0.0202 0.14272-0.0616 0.31648-0.12271 0.52029-0.0409 0.18335-0.0609 0.29515-0.0609 0.33588-0.0815 0.3464-0.20371 0.8258-0.36676 1.4372-0.14274 0.61139-0.27538 1.1813-0.39765 1.7112-0.10187 0.50944-0.1725 0.99932-0.21318 1.4681-0.16314 1.6711 0.36687 2.8215 1.5896 3.4533 1.0189 0.52978 1.9861 0.56039 2.9031 0.0917 0.2853-0.14273 0.5613-0.32599 0.82624-0.55011 0.28531-0.20382 0.53922-0.39659 0.76337-0.58 0.22417-0.18335 0.46972-0.4289 0.73459-0.73459 0.26495-0.32608 0.46824-0.57995 0.6109-0.76334 0.16295-0.20382 0.37689-0.49986 0.64182-0.88705 0.0307-0.0447 0.0601-0.0884 0.0884-0.13019 0.0346 1.4177 0.48457 2.3271 1.3487 2.7283 0.22417 0.10187 0.458 0.15343 0.70259 0.15343 0.24459 0.0202 0.48896-0.0207 0.73352-0.12244 0.24454-0.0814 0.4595-0.16372 0.64289-0.24522 0.20376-0.10188 0.42713-0.25467 0.67167-0.45844 0.26495-0.20377 0.45878-0.35653 0.58105-0.45849 0.14272-0.10188 0.32595-0.26412 0.55013-0.48828 0.44298-0.39299 0.8823-0.81008 1.3178-1.2506-0.0738 0.2576-0.14561 0.52094-0.21645 0.79108-0.14273 0.52985-0.23435 0.90702-0.27503 1.1312-0.0409 0.22417-0.0312 0.52967 0.0298 0.91689 0.061 0.36686 0.23499 0.69343 0.52028 0.97873 0.30571 0.24453 0.63121 0.28565 0.97765 0.12257 0.32604-0.16313 0.53041-0.42851 0.61198-0.79536 0.0409-0.10187 0.0913-0.26519 0.15247-0.48936 1.7119-3.2607 3.6682-5.9608 5.8692-8.1006 0.61137-0.591 1.2024-1.0798 1.773-1.467l0.67274-0.45848c0.14272-0.0409 0.1521 0.10147 0.0298 0.4275-0.0409 0.18337-0.1725 0.4995-0.39663 0.94783-1.0801 2.201-1.7838 3.7296-2.1099 4.5855-0.75403 1.9768-0.96787 3.4749-0.6418 4.4938 0.16293 0.59098 0.50961 0.99869 1.0395 1.2229 0.52984 0.24459 1.1009 0.2951 1.7122 0.15247 0.42794-0.1223 0.84515-0.33612 1.2527-0.64182 0.40758-0.30567 0.71311-0.5701 0.9169-0.79426 0.20377-0.20383 0.51036-0.57151 0.91796-1.1014 0.42814-0.53862 1.1082-1.3854 2.0417-2.5417-0.0279 0.22417-0.0461 0.44936-0.0555 0.67698-0.0409 0.69289 0.092 1.3756 0.39765 2.0481 0.28531 0.67257 0.73303 1.0402 1.3444 1.1013 0.52982 0.061 1.0903-0.062 1.6813-0.36782 0.591-0.32604 1.1209-0.71271 1.5896-1.161 0.55022-0.52985 1.1107-1.182 1.6813-1.9564-0.48911 1.2024-1.2529 3.1998-2.2922 5.9918-0.0409 0.0815-0.0925 0.21318-0.15358 0.39664-0.34645 0.18354-0.58032 0.30568-0.70259 0.36676-0.20381 0.10188-0.5093 0.25573-0.91689 0.4595-0.83555 0.42794-1.4771 0.75348-1.9255 0.97764-0.42794 0.22418-1.0295 0.56024-1.8039 1.0086-0.7948 0.44834-1.4269 0.82548-1.8956 1.1312-0.46872 0.32609-1.0186 0.73375-1.6504 1.2229-0.63174 0.50946-1.1616 0.99832-1.5896 1.467-0.42794 0.4687-0.84619 1.0092-1.2538 1.6206-0.42795 0.61137-0.78405 1.2435-1.0694 1.8956-0.3464 0.73366-0.59084 1.4869-0.7335 2.2613-0.16295 0.77439-0.1936 1.5793-0.0917 2.4148 0.0815 0.85592 0.30591 1.6102 0.67276 2.2624 0.38721 0.6725 0.93713 1.1519 1.6504 1.4372 0.71327 0.28536 1.4465 0.38651 2.2005 0.30491 0.75403-0.0815 1.4672-0.30486 2.1398-0.67168 0.6725-0.36681 1.3352-0.87674 1.9873-1.5289 0.63172-0.65211 1.1311-1.2536 1.4979-1.8039 0.38718-0.55024 0.83601-1.2635 1.3455-2.1398 1.345-2.2621 2.6282-4.88 3.8509-7.8554 0.34645-0.85593 1.0902-2.7512 2.2315-5.6858 1.7322-0.95782 3.2609-1.8554 4.5855-2.6909 1.4265-0.93747 2.6497-1.834 3.6686-2.6899 0.50838-0.41868 0.97802-0.86098 1.4084-1.3284 4e-3 0.40913 0.0135 0.72926 0.0288 0.96167 0 0.28531 0.0298 0.78465 0.0907 1.4979 0.0409 0.69288 0.0713 1.1512 0.0917 1.3753-3.1792 2.7716-5.1555 5.4412-5.9299 8.0089-0.52984 1.773-0.25486 3.0266 0.82521 3.7603 0.99856 0.67255 2.1606 0.65261 3.4852-0.0609 0.81518-0.42794 1.5284-1.0084 2.1398-1.7421 0.63176-0.73364 1.1206-1.5491 1.467-2.4457 0.36686-0.87632 0.64179-1.7728 0.82523-2.6899 0.18335-0.91705 0.28559-1.8547 0.30601-2.8125 0.0202-0.79477 9e-3 -1.8041-0.0312-3.0268 1.7322-1.2431 4.0963-2.6179 7.092-4.126 0.28531-0.14273 0.36748-0.35758 0.24521-0.6429-0.12217-0.30539-0.33776-0.39668-0.64289-0.27503-2.3229 0.91704-4.5748 2.1509-6.7551 3.6995-0.0409-1.019-0.0713-1.8249-0.0917-2.4159 0-1.3043 0.0506-2.4252 0.15248-3.3626 0.0815-0.7948 0.17307-1.3342 0.27503-1.6195 0.061-0.14272 0.16333-0.29545 0.30601-0.45848 0.16295-0.18337 0.33689-0.32672 0.52028-0.42857 0.18335-0.12231 0.36671-0.14235 0.55013-0.0609 0.18335 0.061 0.30552 0.23493 0.36676 0.52027 0.061 0.22413 0.19387 0.37686 0.39765 0.45845 0.22417 0.0816 0.41699 0.0709 0.57998-0.0312 0.16295-0.12231 0.22409-0.30558 0.18337-0.55015-0.0817-0.42798-0.26482-0.79458-0.55013-1.1003-0.28531-0.30567-0.62137-0.49949-1.0086-0.58105-0.38722-0.10188-0.80546-0.10188-1.2538 0-0.50949 0.12231-0.97721 0.37723-1.4052 0.76444-0.40758 0.38721-0.7447 0.80438-1.0096 1.2527-0.24453 0.42795-0.4584 0.9073-0.64183 1.4372-0.16295 0.44835-0.28522 0.92663-0.36676 1.4361-0.10215 0.5095-0.17252 0.95828-0.21324 1.3455-0.0135 0.1227-0.0231 0.25668-0.0298 0.40196-0.68649 0.82178-1.4716 1.5844-2.3551 2.288-1.0801 0.8559-2.3643 1.7524-3.852 2.6899-0.83552 0.52984-1.7732 1.0808-2.8125 1.6514 0.30571-0.7744 0.55009-1.3865 0.73351-1.8348 0.46866-1.1616 1.203-2.7914 2.2016-4.8904 1.019-2.1194 1.6406-3.4342 1.8647-3.9437 0.20377-0.42799 0.21433-0.80512 0.0312-1.1312-0.16294-0.3464-0.39798-0.62138-0.70365-0.82519-0.30567-0.22408-0.66178-0.30519-1.0693-0.24416-0.40759 0.0409-0.73417 0.23355-0.97873 0.58-0.32604 0.44835-0.64214 0.92768-0.94781 1.4372-0.34645-0.42795-0.84579-0.71347-1.4979-0.85612-1.2024-0.24454-2.5466 0.0409-4.0343 0.85612-1.2431 0.6929-2.2829 1.7116-3.1185 3.0566-0.24415 0.39678-0.45465 0.80056-0.63115 1.2101-1.6499 2.062-2.7534 3.4312-3.3115 4.109-0.0816 0.0814-0.21422 0.24483-0.39763 0.48936-0.16295 0.22418-0.29574 0.39693-0.39765 0.51922-0.10188 0.12231-0.2441 0.26558-0.42751 0.42857-0.16314 0.16296-0.31581 0.29575-0.45844 0.39765-0.28532 0.20377-0.58132 0.29539-0.88703 0.27503-0.30567-0.0202-0.45844-0.21424-0.45844-0.58104 0-0.0817 0.0202-0.17327 0.0609-0.27503 0.0409-0.10188 0.0819-0.21463 0.12244-0.33689 0.061-0.14274 0.10228-0.23431 0.12258-0.27504 0.16314-0.50947 0.41795-1.2733 0.76445-2.2922 0.3464-1.0393 0.61087-1.8242 0.79425-2.354 0-0.0409 0.0506-0.23455 0.15248-0.58104 0.12231-0.34645 0.19397-0.56977 0.21428-0.67168 0.0409-0.10188 0.10188-0.3063 0.18335-0.61198 0.10188-0.30573 0.16296-0.53955 0.18337-0.70258 0.0202-0.18336 0.0403-0.39726 0.0609-0.64182 0.0409-0.26496 0.0513-0.49988 0.0312-0.70366-0.0202-0.20382-0.0615-0.4071-0.12257-0.61091-0.12231-0.48908-0.3256-0.82516-0.6109-1.0086-0.28531-0.20386-0.62136-0.24492-1.0086-0.12244-0.3668 0.12231-0.73345 0.28559-1.1003 0.48935-0.3668 0.18335-0.76507 0.46785-1.193 0.85504-0.40758 0.36687-0.7331 0.66287-0.97766 0.88705-0.22417 0.22419-0.4486 0.46858-0.67275 0.73351-0.591 0.63174-1.1714 1.3144-1.7421 2.0481 0.28532-0.52985 1.008-1.7424 2.1696-3.6377 0.24455-0.40758 0.30568-0.78476 0.18336-1.1312-0.10188-0.34644-0.28517-0.64143-0.55013-0.88595-0.24454-0.24454-0.55952-0.3467-0.94674-0.30601-0.3668 0.0202-0.69343 0.20366-0.97873 0.55013-1.2431 1.61-2.3946 3.719-3.4543 6.3276-0.0279 0.0697-0.0549 0.14004-0.0821 0.21111-0.46066 0.49696-0.91257 0.96697-1.3551 1.4094-0.44836 0.46877-0.95718 0.96808-1.5278 1.498-0.55023 0.50946-1.0401 0.87607-1.4681 1.1003-0.40758 0.20381-0.69201 0.20381-0.85506 0-0.10188-0.12231-0.0316-0.68275 0.21324-1.6813 0.12231-0.42798 0.34664-1.1001 0.67272-2.0172 0.061-0.18336 0.56049-1.376 1.4979-3.5769 0.22419-0.55024 0.16314-1.0296-0.18335-1.4372-0.34646-0.40754-0.79523-0.59083-1.3455-0.55013-0.52985 0.0409-0.91649 0.32622-1.161 0.85611-0.83455 1.8142-1.3781 3.4267-1.6312 4.8371-0.12752 0.20506-0.28761 0.44673-0.47871 0.72604-0.24453 0.36686-0.50896 0.73452-0.79428 1.1013-0.26495 0.34644-0.56096 0.72362-0.88703 1.1312-0.32604 0.38718-0.64105 0.71276-0.94674 0.97767-0.30568 0.2649-0.62175 0.49985-0.9478 0.70366-0.30568 0.20377-0.58067 0.29539-0.82519 0.27503-0.24459-0.0202-0.47949-0.12244-0.70368-0.30601 0.0408-0.26495 0.0818-0.71378 0.12257-1.3455 0.0409-0.63178 0.0819-1.11 0.12271-1.4361 0.0409-0.24454 0.11122-0.61223 0.21322-1.1013 0.10188-0.50949 0.18413-0.95723 0.24522-1.3444 0.061-0.38722 0.10228-0.76435 0.12244-1.1312 0.0202-0.48911-7.8e-4 -0.95791-0.0618-1.4062-0.061-0.4687-0.18336-0.927-0.36676-1.3753-0.16294-0.46868-0.43799-0.82586-0.82518-1.0704-0.36682-0.24449-0.81562-0.33612-1.3455-0.27508-0.42794 0.061-0.84516 0.21394-1.2527 0.45849-0.38724 0.24459-0.76439 0.59115-1.1312 1.0395-0.36686 0.44834-0.66183 0.82547-0.88597 1.1312-0.20381 0.28531-0.46928 0.68248-0.79536 1.192l-0.18336 0.27503c-0.34645 0.55024-0.70252 1.1718-1.0693 1.8647 0.2649-1.0393 0.47875-1.8537 0.64179-2.4447 0.34646-1.2024 0.692-2.3539 1.0384-3.4543 1.4265-1.4265 3.5673-3.4851 6.4204-6.1751 2.8734-2.7104 4.9826-4.7384 6.3276-6.0834l1.7421-1.7421 0.79536-0.79532c0.42794-0.44832 0.72293-0.77389 0.88594-0.97769 0.18335-0.20377 0.42785-0.48928 0.73352-0.85609 0.32608-0.36682 0.60105-0.70289 0.82521-1.0086 0.24459-0.32608 0.46896-0.65266 0.67273-0.97873 0.46872-0.67251 0.83535-1.3446 1.1003-2.0171 0.28537-0.67253 0.43813-1.4163 0.45844-2.2314 0.0202-0.83555-0.20296-1.5593-0.67168-2.1707h-1e-3c-0.32603-0.44836-0.73269-0.80442-1.2218-1.0694-0.48908-0.28526-1.0095-0.46858-1.5598-0.55013-0.26495-0.0409-0.53173-0.0666-0.80174-0.0767zm0.21002 1.3753c0.1147-3e-5 0.23037 5e-3 0.34755 0.0153 0.46867 0.0202 0.91751 0.14254 1.3455 0.36677 0.52986 0.28536 0.88594 0.67193 1.0694 1.161 0.20386 0.46872 0.26495 0.95753 0.18335 1.467-0.0814 0.4891-0.25433 1.019-0.51922 1.5896-0.26495 0.57062-0.53989 1.07-0.82519 1.4979-0.28531 0.40758-0.58135 0.80476-0.88702 1.192v1e-3c-1.182 1.4673-2.9445 3.3626-5.2881 5.6858-0.97818 0.95781-2.0991 2.0377-3.3626 3.24-1.2635 1.182-2.5477 2.384-3.852 3.6068-1.3043 1.2228-2.4252 2.2931-3.3626 3.2102 0.20381-0.61137 0.38707-1.1413 0.55013-1.5896 1.9972-5.5431 4.0252-10.007 6.0834-13.39 1.3043-2.1602 2.6907-4.0249 4.158-5.5941 0.30568-0.34645 0.62065-0.66144 0.94674-0.94674 0.34644-0.28531 0.73417-0.55078 1.1621-0.79536 0.42799-0.26491 0.84515-0.45877 1.2527-0.58104 0.32099-0.0917 0.65403-0.13759 0.9979-0.13759zm-0.226 21.276c-0.1376 0-0.27163 0.0259-0.40403 0.0766-0.24455 0.10188-0.42892 0.2852-0.55121 0.55014-0.0409 0.10188-0.12191 0.34631-0.24415 0.7335-0.12231 0.40759-0.16334 0.74366-0.12244 1.0086 0.0409 0.30572 0.19353 0.51954 0.45844 0.64182 0.28531 0.10215 0.56133 0.0713 0.82626-0.0916 0.18335-0.14274 0.36671-0.36706 0.55014-0.67278 0.26491-0.42794 0.41772-0.69234 0.45844-0.79427 0.10188-0.24459 0.0915-0.51004-0.0312-0.79535-0.10188-0.28531-0.27466-0.47808-0.51921-0.57999-0.14272-0.051-0.28358-0.0766-0.42112-0.0766zm-106.27 2.5524c-0.13778 9e-3 -0.27744 0.0409-0.41992 0.0917-0.26476 0.10188-0.47876 0.27466-0.6418 0.51923-0.16314 0.28532-0.3367 0.58135-0.52029 0.88703-0.16314 0.30573-0.32637 0.64175-0.48936 1.0086-0.16314 0.36687-0.29482 0.67233-0.39644 0.91688-0.1019 0.24453-0.24502 0.59115-0.42843 1.0395-0.16314 0.42795-0.28498 0.74402-0.36676 0.94781-0.18336 0.42794-0.82498 1.9872-1.9254 4.6772-0.95782 2.364-1.5183 3.7493-1.6813 4.1569-1.9768 1.6914-3.6687 3.5972-5.0748 5.7167-0.93746 1.3654-1.7318 2.7813-2.3839 4.2486 0 0.0207-0.07137 0.19412-0.21443 0.52026-0.16314 0.3464-0.25487 0.56026-0.27508 0.64184-0.04226 0.0815-0.11141 0.26482-0.21304 0.55012-0.12232 0.30567-0.19373 0.53011-0.21443 0.67274-0.01921 0.16295-0.05077 0.35581-0.09177 0.58-0.04226 0.24459-0.04226 0.46896 0 0.67272 0.01921 0.20386 0.06066 0.39764 0.12136 0.58107 0.12232 0.32609 0.316 0.57046 0.58102 0.73349 0.24454 0.18336 0.51951 0.29623 0.82523 0.3369 0.28541 0.0409 0.58133 0.0307 0.88699-0.0312 0.30568-0.061 0.60066-0.16332 0.88598-0.30601 1.1412-0.52984 2.2527-1.6603 3.3328-3.3925 0.2041-0.32609 0.40725-0.67268 0.6109-1.0395 0.2041-0.36681 0.39783-0.70289 0.5811-1.0086 0.16314-0.28531 0.35692-0.653 0.581-1.1013 0.20362-0.42798 0.36585-0.76405 0.48831-1.0086 0.12232-0.24459 0.30568-0.6217 0.55011-1.1312 0.22427-0.50949 0.3781-0.86559 0.45945-1.0694 0.0815-0.18337 0.24363-0.56057 0.48827-1.1312 0.24454-0.55025 0.3974-0.89683 0.45849-1.0395 0.06109-0.14272 0.22432-0.5293 0.48942-1.161 0.26476-0.61136 0.41757-0.96851 0.45849-1.0704 0.18336-0.40759 0.44908-1.0397 0.79534-1.8956 0.36676-0.83552 0.6418-1.4666 0.82519-1.8945 0.28546-0.38716 0.98803-1.427 2.1089-3.1185 1.1412-1.7118 2.0683-2.9855 2.7816-3.8211 0.73365-0.81515 1.3552-1.3851 1.8647-1.7111 0.16314-0.12258 0.3367-0.21506 0.52031-0.27614 0.18336-0.0816 0.36681-0.13206 0.55011-0.15249 0.2041-0.0409 0.36724 3.5e-4 0.48934 0.12244 0.14254 0.10188 0.22384 0.29574 0.24406 0.58107 0 0.10188-0.01921 0.22408-0.06066 0.36676-0.04226 0.14273-0.09216 0.30486-0.1532 0.48831-0.06109 0.16294-0.11141 0.28521-0.15248 0.36676-0.24454 0.91706-0.51004 1.7535-0.79535 2.5076-1.8341 0.52986-3.2911 1.1514-4.3712 1.8647-0.73365 0.48911-1.3552 1.059-1.8647 1.7112-0.48907 0.63172-0.70295 1.2944-0.64182 1.9873 0.06109 0.77443 0.40773 1.376 1.0395 1.8039 0.6521 0.44827 1.3759 0.64106 2.1707 0.57997 0.85592-0.061 1.6408-0.33606 2.3541-0.82519 0.73365-0.48911 1.3447-1.1107 1.8338-1.8647 0.48907-0.7744 0.89678-1.5593 1.2229-2.3541 0.32589-0.81516 0.581-1.6506 0.76445-2.5065 1.3704-0.36421 2.5706-0.5955 3.6014-0.69406-0.42746 0.96982-0.67031 1.9755-0.7282 3.0172-0.04226 0.69288 0.09216 1.3756 0.39784 2.0481 0.28546 0.67256 0.74358 1.0402 1.3753 1.1013 0.50947 0.061 1.0594-0.061 1.6504-0.36677 0.61134-0.32609 1.1518-0.71377 1.6205-1.1621 0.79479-0.77441 1.763-2.0376 2.9042-3.7902 0.14254-0.20377 0.26476-0.38708 0.36681-0.55011-0.1021 0.44835-0.18432 0.87605-0.24502 1.2836-0.30567 2.3028 0.11237 3.7187 1.2538 4.2486 0.22427 0.10187 0.45801 0.15339 0.70261 0.15339 0.24454 0.0202 0.48892-0.0207 0.7335-0.12258 0.24454-0.0814 0.45849-0.16371 0.64182-0.24521 0.20362-0.10188 0.42794-0.25463 0.67274-0.4585 0.26476-0.20377 0.45897-0.35648 0.58104-0.45844 0.14254-0.10187 0.32589-0.26413 0.55011-0.48828 0.41335-0.36657 0.82366-0.75412 1.2303-1.1621-0.0998 0.24372-0.20458 0.49858-0.31321 0.76444-0.95782 2.364-1.5183 3.7493-1.6813 4.1569-1.9768 1.6915-3.6676 3.5972-5.0738 5.7167-0.93747 1.3654-1.7329 2.7813-2.385 4.2486 0 0.0207-0.07059 0.1941-0.21304 0.52026-0.16314 0.3464-0.25487 0.56026-0.27508 0.64183-0.04226 0.0814-0.11237 0.2648-0.21443 0.55013-0.12232 0.30568-0.19373 0.5301-0.21443 0.67273-0.01921 0.16296-0.05076 0.35582-0.09177 0.57999-0.04226 0.24459-0.04226 0.46896 0 0.67276 0.01921 0.20386 0.06162 0.39763 0.12271 0.58105 0.12232 0.32604 0.31605 0.57045 0.58106 0.73351 0.24454 0.18336 0.51949 0.29621 0.82515 0.33688 0.28546 0.0409 0.5803 0.0307 0.88598-0.0312 0.30568-0.061 0.60174-0.16334 0.88704-0.30602 1.1412-0.52985 2.2516-1.6602 3.3317-3.3925 0.20362-0.32604 0.40725-0.67265 0.61091-1.0395 0.20362-0.36681 0.39735-0.70287 0.58104-1.0086 0.16314-0.28531 0.35692-0.653 0.58106-1.1013 0.20362-0.42796 0.36729-0.76404 0.48934-1.0086 0.12232-0.24458 0.30567-0.62168 0.55011-1.1312 0.22432-0.50948 0.37714-0.86558 0.45849-1.0694 0.0813-0.18335 0.24502-0.56057 0.48935-1.1312 0.24454-0.55023 0.39735-0.89682 0.45849-1.0395 0.06103-0.14272 0.22336-0.52931 0.48831-1.161 0.26476-0.61136 0.41901-0.96848 0.45945-1.0704 0.18336-0.40753 0.44768-1.0397 0.79428-1.8956 0.36681-0.83555 0.6418-1.4666 0.82521-1.8945 0.28546-0.38722 0.98906-1.427 2.1099-3.1185 1.1412-1.7118 2.0683-2.9856 2.7816-3.8211 0.73364-0.81518 1.3552-1.3851 1.8647-1.7112 0.16314-0.12257 0.33574-0.21506 0.5192-0.27615 0.18336-0.0817 0.36681-0.13205 0.55011-0.15247 0.20362-0.0409 0.36729 3.5e-4 0.4894 0.12244 0.14254 0.10188 0.22384 0.29574 0.24406 0.58104 0 0.10188-0.01921 0.22408-0.06066 0.36677-0.04226 0.14273-0.0912 0.30491-0.15248 0.48829-0.06103 0.16295-0.11276 0.28522-0.15377 0.36676-0.24454 0.91707-0.50895 1.7536-0.79428 2.5076-1.8341 0.52987-3.2911 1.1514-4.3712 1.8647-0.73365 0.48911-1.3552 1.059-1.8647 1.7112-0.48911 0.63171-0.70293 1.2944-0.6418 1.9873 0.06109 0.77441 0.40677 1.376 1.0384 1.8039 0.6521 0.44826 1.3759 0.64106 2.1707 0.58 0.85591-0.061 1.6408-0.33612 2.3541-0.8252 0.73364-0.48911 1.3447-1.1107 1.8338-1.8647 0.48911-0.7744 0.89684-1.5593 1.2229-2.3541 0.32589-0.81516 0.58106-1.6506 0.76445-2.5065 1.2979-0.34496 2.4429-0.57038 3.4362-0.67702-0.41147 1.1734-0.599 2.347-0.56289 3.5204 0.04226 1.6711 0.6212 2.792 1.7421 3.3626 0.52985 0.28531 1.1009 0.41694 1.7123 0.39663 0.61132 0 1.1824-0.13166 1.7122-0.39663 0.81515-0.40758 1.5895-0.96804 2.3231-1.6813 0.70582-0.66762 1.4468-1.4786 2.224-2.4319-0.34702 1.1601-0.53796 2.1438-0.57356 2.9511-0.01921 0.38722 0.10152 0.6927 0.36681 0.91689 0.24454 0.22423 0.53004 0.29584 0.85612 0.21429 0.32589-0.061 0.59051-0.25496 0.7943-0.58107 0.38703-0.69289 0.87709-1.7727 1.4681-3.24 0.75407-1.2024 1.579-2.3338 2.4756-3.3935 0.73366-0.85594 1.3752-1.5481 1.9254-2.0779 0.3466-0.32609 0.76474-0.66212 1.2538-1.0086-0.34659 0.46872-0.63195 0.86589-0.85611 1.192-0.20362 0.30567-0.4378 0.7134-0.70261 1.2229-0.24454 0.50947-0.39735 0.94774-0.45849 1.3146-0.06102 0.36681-0.03311 0.75345 0.09173 1.161 0.12231 0.40758 0.37622 0.76472 0.76337 1.0704 0.46885 0.30568 0.91753 0.45849 1.3455 0.45849 0.4279 0 0.91676-0.1223 1.467-0.36676 0.5502-0.24455 1.0496-0.49951 1.4979-0.76443 0.46887-0.28532 0.96807-0.55079 1.498-0.79535 0.52986-0.26501 0.97866-0.41772 1.3454-0.45844 0.18336-0.0202 0.30568-0.10148 0.36682-0.24416 0.061-0.16294 0.0422-0.31576-0.0617-0.45848-0.0815-0.16295-0.22384-0.23466-0.42746-0.21429-0.79477 0.0814-1.7524 0.43865-2.8733 1.0704-0.77437 0.44827-1.2938 0.72329-1.5587 0.82519-0.10188 0.0613-0.23465 0.11176-0.39783 0.15249-0.14254 0.0409-0.28594 0.0925-0.42844 0.15343-0.14254 0.0409-0.26475 0.0808-0.3668 0.12151l-0.36682 0.15337c-0.01923-0.0202 0.01923-0.072 0.12271-0.15337 0.12231-0.12231 0.20362-0.22332 0.24405-0.30492 0.10188-0.18335 0.2041-0.38784 0.30616-0.61198 0.12231-0.22417 0.22432-0.458 0.30616-0.70256 0.10188-0.24455 0.19373-0.46896 0.27509-0.67277 0.08145-0.20377 0.17309-0.43874 0.27508-0.70364 0.10188-0.28531 0.18297-0.50866 0.24405-0.67168 0.55021-1.3858 0.60188-2.3445 0.15324-2.8743-0.20362-0.24464-0.43874-0.39736-0.70366-0.45844-0.24454-0.061-0.51949-0.0307-0.82518 0.0916-0.30568 0.12231-0.58065 0.25501-0.82518 0.39769-0.24454 0.14272-0.53008 0.36706-0.85615 0.67273-0.30568 0.28532-0.53953 0.50972-0.70257 0.67275-0.16314 0.14272-0.3673 0.33545-0.61199 0.58-0.04219 0.0613-0.08185 0.11269-0.12271 0.15343-0.06102 0.061-0.20314 0.2139-0.42748 0.45844 0.50947-0.93744 0.83607-1.5485 0.9787-1.8338 0.20362-0.38722 0.21304-0.73382 0.02831-1.0395-0.16314-0.32604-0.39687-0.59154-0.70257-0.79535-0.28546-0.20372-0.62137-0.27426-1.0086-0.21317-0.36681 0.0409-0.66286 0.23353-0.88699 0.57997-0.95782 1.4673-1.8649 3.2309-2.7208 5.2892-0.01921 0.0437-0.03314 0.0867-0.0523 0.13019-0.484 0.48836-1.0978 1.1578-1.8423 2.0086-0.97818 1.1412-1.763 1.9672-2.354 2.4766-1.6711 1.4877-2.772 1.9049-3.3019 1.2527-0.44816-0.591-0.56004-1.6192-0.33579-3.0865 0.20362-1.2839 0.69265-2.4965 1.467-3.6377h0.03266c1.2024 0.061 2.2622-0.23493 3.1792-0.88705 0.30568-0.22417 0.58068-0.46857 0.82523-0.7335 0.26476-0.26495 0.4788-0.58099 0.64184-0.9478 0.18336-0.36682 0.26476-0.72291 0.24406-1.0694-0.06103-0.57063-0.35596-0.98886-0.88596-1.2538-0.50949-0.265-1.0699-0.35658-1.6813-0.27504-1.3246 0.20383-2.5478 0.90648-3.6686 2.1088-0.78382 0.81795-1.4325 1.7576-1.9457 2.8178-1.0365 0.0502-2.262 0.25256-3.6782 0.60661 0.24454-1.7322 0.0096-3.0575-0.70366-3.9746-0.30568-0.38712-0.68286-0.62099-1.1312-0.70256-0.42794-0.0814-0.84515-0.0403-1.2527 0.12257-0.40773 0.14273-0.8058 0.36599-1.193 0.67168-1.182 0.93743-2.3841 2.3133-3.6068 4.127 0.73365-1.6914 1.2225-3.1074 1.467-4.2486 0.06103-0.28531 0.03266-0.56028-0.09177-0.82518-0.12232-0.26495-0.29487-0.46935-0.51922-0.61198-0.22432-0.16295-0.47909-0.2746-0.76442-0.33578-0.26476-0.0611-0.5399-0.0409-0.82521 0.0609-0.26476 0.10187-0.4788 0.27469-0.64179 0.51922-0.16314 0.28531-0.33579 0.58134-0.51922 0.88702-0.16314 0.30573-0.32637 0.64174-0.4894 1.0086-0.16314 0.3668-0.29578 0.67234-0.39783 0.91691-0.1021 0.24453-0.24406 0.59114-0.42746 1.0395-0.16314 0.42798-0.28546 0.74401-0.36681 0.94779-0.0813 0.18946-0.25299 0.60037-0.5139 1.2335-0.0498 0.0542-0.10301 0.11216-0.15896 0.1727-0.48913 0.52988-0.96845 1.0293-1.4372 1.4979-0.44816 0.46877-0.95716 0.96811-1.5278 1.498-0.55026 0.50947-1.0401 0.87608-1.4681 1.1003-0.40773 0.20381-0.69198 0.20381-0.85501 0-0.10211-0.12231-0.03314-0.68275 0.21304-1.6813 0.12232-0.428 0.34659-1.1001 0.67274-2.0172 0.0813-0.18336 0.58087-1.376 1.4979-3.577 0.16314-0.40753 0.17346-0.75415 0.03314-1.0395-0.14254-0.30568-0.34702-0.53954-0.61199-0.70259-0.26476-0.18337-0.57043-0.26558-0.91687-0.24521-0.34659 0.0202-0.63193 0.15319-0.8561 0.39768-0.04226 0-0.08091 0.012-0.12175 0.0312-0.34659-0.44836-0.84582-0.74438-1.4979-0.88703-1.2024-0.24454-2.5477 0.0409-4.0354 0.85609-1.2431 0.69291-2.283 1.7116-3.1185 3.0566-0.01921 0.0327-0.03745 0.0654-0.05878 0.098-0.04803-9e-3 -0.09922-0.0135-0.15473-5e-3 -1.0597 0.0409-2.3239 0.24517-3.7912 0.61197 0.24454-1.7322 0.0096-3.0575-0.70263-3.9746-0.30568-0.38718-0.68281-0.621-1.1312-0.70257-0.42794-0.0814-0.84618-0.0403-1.2538 0.12257-0.40773 0.14273-0.80472 0.366-1.1919 0.67168-1.182 0.93743-2.3841 2.3133-3.6068 4.1271 0.73363-1.6915 1.2224-3.1074 1.467-4.2486 0.06103-0.28531 0.02833-0.56029-0.09177-0.82519-0.12232-0.26495-0.29482-0.46929-0.5192-0.61198-0.22432-0.16294-0.47914-0.2746-0.76445-0.33584-0.1326-0.0307-0.26759-0.0409-0.40537-0.0312zm48.827 2.2325h0.0021v1e-3h0.0011v2e-3c0.0039 0.022-0.02833 0.11296-0.09691 0.27081-0.20362 0.44836-0.52932 0.82549-0.97767 1.1312-0.44816 0.28531-0.94771 0.47908-1.498 0.58104 0.14254-0.14274 0.26476-0.26486 0.36681-0.36677 0.44816-0.46877 0.83602-0.8153 1.1621-1.0395 0.32589-0.24463 0.57995-0.39735 0.76336-0.45844 0.18758-0.0752 0.27979-0.11563 0.27696-0.12177zm-30.002 1.1642c0.34001 8e-3 0.63997 0.1187 0.89979 0.33262-1.3246 2.0583-2.2212 3.4236-2.6899 4.0962h-0.0011c-0.81513 1.1208-1.4978 1.9257-2.0481 2.4148-0.01921 0.0202-0.06033 0.0615-0.12136 0.12257-0.06103 0.0409-0.11276 0.0819-0.15377 0.12244-0.04226 0.0202-0.0912 0.0617-0.15229 0.12244-0.06103 0.0409-0.11141 0.0808-0.15228 0.12151-0.04226 0.0202-0.1021 0.051-0.18336 0.0917-0.06103 0.0409-0.12232 0.0713-0.18336 0.0917-0.04226 0.0202-0.09216 0.0403-0.15325 0.0609-0.04226 0.0202-0.0912 0.0312-0.15228 0.0312-0.06109 0-0.112-0.012-0.15228-0.0312-0.06103-0.0409-0.11295-0.0808-0.15325-0.12151-0.04226-0.0409-0.07156-0.0925-0.09177-0.15344 0-0.0815-0.0096-0.15229-0.02833-0.21323v-0.21429c0.01921-0.10188 0.02833-0.17365 0.02833-0.21428 0.01921-0.061 0.04226-0.13272 0.06162-0.21429 0.01921-0.10188 0.02833-0.16294 0.02833-0.18335 0.36681-1.9156 1.2023-3.5254 2.5065-4.8297 0.32589-0.34644 0.70322-0.64143 1.1312-0.88595 0.44816-0.2649 0.91714-0.43871 1.4062-0.52029 0.12232-0.0202 0.24079-0.0292 0.35408-0.0268zm111.89 0c0.35149 8e-3 0.65705 0.1187 0.91687 0.33262-1.3247 2.0583-2.2317 3.4236-2.7208 4.0962-0.79477 1.1208-1.4775 1.9257-2.0481 2.4148-0.0202 0.0202-0.0708 0.0615-0.15247 0.12257l-0.15249 0.15249c-0.0409 0.0202-0.10188 0.0615-0.18335 0.12257-0.061 0.0613-0.12324 0.11176-0.1845 0.15247-0.0409 0.0202-0.10188 0.0519-0.18337 0.0928-0.0613 0.0409-0.12231 0.0704-0.18336 0.0907-0.061 0.0202-0.12217 0.0312-0.18335 0.0312-0.061 0-0.12231-0.012-0.18336-0.0312-0.0613-0.0409-0.11176-0.0808-0.15248-0.1215-0.0202-0.0409-0.0403-0.0925-0.0609-0.15344-0.0202-0.0814-0.0413-0.15228-0.062-0.21323 0-0.061 0.012-0.13273 0.0312-0.21428 0.0202-0.10188 0.0312-0.17366 0.0312-0.21429 0-0.061 9e-3 -0.13273 0.0298-0.21428 0.0202-0.10188 0.0413-0.16295 0.0618-0.18336 0.34644-1.9156 1.1713-3.5254 2.4756-4.8296 0.32604-0.3464 0.70322-0.64142 1.1312-0.88597 0.44834-0.2649 0.91716-0.43869 1.4062-0.52029 0.12751-0.0202 0.24958-0.0292 0.36676-0.0268zm-125.79 4.4597c-0.14292 0.28531-0.26476 0.54023-0.36681 0.76441-0.81515 1.5284-1.7622 2.5472-2.8423 3.0567-0.42794 0.18335-0.7946 0.28459-1.1003 0.3049-0.26476 0.0202-0.43875 0.012-0.52025-0.0298-0.06103-0.0611-0.09177-0.21389-0.09177-0.45848 0.01921-0.59099 0.62191-1.3042 1.8039-2.1398 0.77441-0.57063 1.8132-1.07 3.1174-1.4979zm30.172 0c-0.14254 0.28531-0.26476 0.54023-0.36681 0.76441-0.81519 1.5284-1.7633 2.5472-2.8435 3.0567-0.42794 0.18335-0.79454 0.28459-1.1003 0.3049-0.26476 0.0202-0.43779 0.012-0.5192-0.0298-0.06103-0.0611-0.09177-0.21389-0.09177-0.45848 0.01921-0.59099 0.62082-1.3042 1.8028-2.1398 0.77443-0.57063 1.8143-1.07 3.1185-1.4979zm105.8 5.1964c0.0202 0.50949 0.0202 0.97826 0 1.4063-0.0202 0.28531-0.0413 0.6108-0.0618 0.97764-0.0409 0.36681-0.10188 0.81563-0.18335 1.3455-0.0814 0.52986-0.17309 1.0398-0.27504 1.5289-0.1223 0.50947-0.26452 1.0288-0.42751 1.5587-0.16295 0.55024-0.35687 1.019-0.58104 1.4062-0.22419 0.38722-0.47915 0.72325-0.76444 1.0086-0.28531 0.30571-0.60135 0.46895-0.9478 0.48935-0.34644 0.0207-0.73309-0.0618-1.161-0.24516-0.42795-0.22418-0.68286-0.58024-0.76442-1.0694-0.0814-0.48911-4.1e-4 -1.0296 0.24414-1.6206 0.22419-0.57061 0.4486-1.07 0.67273-1.4979 0.22418-0.40754 0.46858-0.80473 0.73352-1.192 0.93745-1.3858 2.11-2.7511 3.5162-4.0961zm-148.72 3.5769c-0.46886 1.182-0.87642 2.2619-1.2229 3.24-0.71323 1.9768-1.2632 3.4232-1.6504 4.3403-0.06103 0.18335-0.17308 0.51002-0.33574 0.97874-0.18336 0.48908-0.33718 0.88626-0.45945 1.1919-0.12232 0.32607-0.2953 0.66215-0.51925 1.0086-0.24454 0.36686-0.48894 0.6418-0.73352 0.8252-0.26476 0.18336-0.56092 0.23514-0.88699 0.1534-0.32589-0.0815-0.51888-0.27538-0.58001-0.58105-0.06103-0.26495-5.8e-5 -0.67265 0.18336-1.2229 0.14254-0.48912 0.40725-1.1718 0.79428-2.0481 0.59096-1.3043 1.2842-2.5579 2.079-3.7603 0.95782-1.4673 2.0683-2.8421 3.3317-4.126zm30.171 0c-0.46886 1.182-0.87539 2.2618-1.2218 3.24-0.71324 1.9768-1.2642 3.4232-1.6514 4.3403-0.06103 0.18335-0.1727 0.51002-0.33579 0.97874-0.18336 0.48908-0.33622 0.88626-0.45849 1.1919-0.12232 0.32607-0.29626 0.66215-0.52029 1.0086-0.24454 0.36686-0.48898 0.6418-0.7335 0.8252-0.26476 0.18336-0.5599 0.23514-0.88598 0.1534-0.32589-0.0815-0.51991-0.27538-0.58104-0.58105-0.06103-0.26495-5.8e-5 -0.67265 0.18336-1.2229 0.14254-0.48912 0.40725-1.1718 0.79426-2.0481 0.59102-1.3043 1.2842-2.5579 2.079-3.7603 0.95782-1.4673 2.0682-2.8421 3.3317-4.126zm104.12 0.24416c-0.67251 1.773-1.2119 3.1889-1.6195 4.2486-0.40758 1.0801-0.94803 2.3748-1.6205 3.8829-0.6929 1.508-1.3851 2.8628-2.0779 4.0652-0.20381 0.3668-0.44926 0.7545-0.73456 1.1621-0.28537 0.40758-0.64138 0.83528-1.0694 1.2836-0.42795 0.44836-0.85568 0.80444-1.2836 1.0694-0.428 0.2649-0.87677 0.38813-1.3455 0.36782-0.4891 0-0.92738-0.2044-1.3146-0.61195-0.52982-0.55025-0.83531-1.274-0.91688-2.1707-0.0816-0.89666-0.0202-1.7521 0.18336-2.5673 0.20377-0.79479 0.48928-1.5386 0.85612-2.2315 0.34644-0.65213 0.74361-1.2737 1.192-1.8647 0.44835-0.59101 0.97824-1.1515 1.5896-1.6813 0.61139-0.5095 1.1718-0.95828 1.6813-1.3455 0.50949-0.38721 1.1721-0.81494 1.9873-1.2836 0.81519-0.44836 1.4567-0.79495 1.9255-1.0395l2.079-1.0395c0.20377-0.10187 0.366-0.18298 0.4883-0.24416z" style="shape-padding:14.2141;white-space:pre" onmouseout=""/><path d="m119.14 218.86c-0.18085-0.18108 6.0305-6.7137 13.919-14.532 1.1271-1.117 2.224-2.1954 3.2848-3.2299 3.2081-3.1285 6.8848-6.5529 8.6398-8.1629v-1e-5c1.6813-1.5422 2.6324-2.4843 2.706-2.4184 0.0736 0.0659-0.75013 1.1404-2.3343 2.7978-2.2866 2.3928-4.5559 4.6179-8.3777 8.4265-1.0432 1.0396-2.145 2.1347-3.2658 3.2455-7.8851 7.8144-14.391 14.054-14.572 13.873z"/><g id="pinwheel"><path id="stick" transform="matrix(.79593 0 0 .79593 21.503 79.555)" d="m132.76 164.36c4.0513-3.9267 8.1027-7.8534 11.749-11.344s6.8872-6.5444 10.128-9.5985" style="fill:#1a1a1a;stroke-width:1.2;stroke:#000"/><g id="pinwheel-blades"><path d="m144.64 188.89 1.1222-1.3297c-0.78082-0.65901-1.9426-1.5275-3.1226-2.4656-0.89525-0.71166-1.7626-1.4409-2.419-2.1377-0.29834-0.31674-0.54725-0.62051-0.7445-0.92263-0.19261-0.29499-0.34322-0.59916-0.44314-0.93077-0.10068-0.33407-0.15261-0.70493-0.13961-1.1319 0.0124-0.43694 0.0943-0.92019 0.24954-1.459 0.16176-0.56139 0.40045-1.1693 0.6865-1.7948 0.30701-0.67138 0.6678-1.3614 1.0419-2.029 0.92579-1.6522 2.0462-3.3652 2.742-4.3574-0.74944 1.0688-1.8956 2.5497-3.0613 4.1528-0.45156 0.62107-0.90941 1.2689-1.3237 1.9009-0.38492 0.58712-0.74425 1.1786-1.0359 1.7448-0.2806 0.5447-0.50508 1.0776-0.65773 1.608-0.15041 0.52253-0.23096 1.042-0.22955 1.5708 1e-3 0.53008 0.0852 1.0485 0.24403 1.5638 0.16116 0.52289 0.39508 1.0279 0.67949 1.52 0.60789 1.0519 1.4724 2.0865 2.2998 2.9734 1.0722 1.1493 2.2671 2.2444 2.9893 2.8539l1.1222-1.3297z"/><path d="m138.57 178.38c0.56066-1.0336 1.1213-2.0672 1.7104-3.0679 0.58904-1.0008 1.2065-1.9687 1.8102-2.8278 0.60372-0.85904 1.1937-1.6091 1.7838-2.3592" style="stroke-linecap:round;stroke-width:.83283;stroke:#000"/><path d="m144 170c0.64505 4.9246 1.2901 9.8492 1.7026 12.816 0.41245 2.9668 0.59227 3.9757 0.7721 4.9847m-0.17095 2.9939-2.3435-20.733" style="stroke-linecap:round;stroke-width:.83283;stroke:#000"/><path d="m144.64 188.89 1.1222-1.3297c-0.78082-0.65901-1.9426-1.5275-3.1226-2.4656-0.89525-0.71166-1.7626-1.4409-2.419-2.1377-0.29834-0.31674-0.54725-0.62051-0.7445-0.92263-0.19261-0.29499-0.34322-0.59916-0.44314-0.93077-0.10068-0.33407-0.15261-0.70493-0.13961-1.1319 0.0124-0.43694 0.0943-0.92019 0.24954-1.459 0.16176-0.56139 0.40045-1.1693 0.6865-1.7948 0.30701-0.67138 0.6678-1.3614 1.0419-2.029 0.92579-1.6522 2.0462-3.3652 2.742-4.3574-0.74944 1.0688-1.8956 2.5497-3.0613 4.1528-0.45156 0.62107-0.90941 1.2689-1.3237 1.9009-0.38492 0.58712-0.74425 1.1786-1.0359 1.7448-0.2806 0.5447-0.50508 1.0776-0.65773 1.608-0.15041 0.52253-0.23096 1.042-0.22955 1.5708 1e-3 0.53008 0.0852 1.0485 0.24403 1.5638 0.16116 0.52289 0.39508 1.0279 0.67949 1.52 0.60789 1.0519 1.4724 2.0865 2.2998 2.9734 1.0722 1.1493 2.2671 2.2444 2.9893 2.8539l1.1222-1.3297z"/><path d="m138.57 178.38c0.56066-1.0336 1.1213-2.0672 1.7104-3.0679 0.58904-1.0008 1.2065-1.9687 1.8102-2.8278 0.60372-0.85904 1.1937-1.6091 1.7838-2.3592"/><path d="m144 170c0.64505 4.9246 1.2901 9.8492 1.7026 12.816 0.41245 2.9668 0.59227 3.9757 0.7721 4.9847m-0.17095 2.9939-2.3435-20.733"/><path d="m148.24 188.8 1.6114 0.65642c0.38545-0.94624 0.85245-2.3196 1.3799-3.7317 0.40018-1.0714 0.82565-2.1216 1.2856-2.9612 0.20903-0.38162 0.42101-0.71222 0.6474-0.99318 0.22103-0.27432 0.46378-0.51156 0.74827-0.70907 0.28662-0.19895 0.62328-0.36296 1.0334-0.48255 0.41961-0.12237 0.90428-0.19467 1.4647-0.21352 0.58389-0.0196 1.2358 0.0196 1.9191 0.0988 0.73341 0.0846 1.5012 0.21443 2.2517 0.36391 1.8574 0.36991 3.8328 0.90614 4.9915 1.2612-1.2481-0.38248-3.0107-1.015-4.8956-1.6281-0.73019-0.23755-1.4878-0.47277-2.2169-0.67152-0.67734-0.18463-1.3509-0.34361-1.9796-0.44604-0.60473-0.0986-1.1809-0.14737-1.7325-0.12864-0.54344 0.0185-1.0623 0.10234-1.5648 0.26709-0.5037 0.16513-0.97085 0.40503-1.4118 0.71532-0.44749 0.31485-0.85547 0.69336-1.2356 1.1159-0.81257 0.9032-1.5294 2.0452-2.1172 3.1061-0.76171 1.3749-1.434 2.8497-1.7905 3.7249 0 0 1.6114 0.65641 1.6114 0.65641z"/><path d="m156.35 179.79c1.1562 0.21383 2.3125 0.42765 3.4463 0.67861 1.1338 0.25096 2.2452 0.53905 3.2487 0.84777 1.0036 0.30873 1.8993 0.63807 2.795 0.96743" style="stroke-linecap:round;stroke-width:.83283;stroke:#000"/><path d="m166 182.36c-4.4842 2.1353-8.9685 4.2705-11.663 5.5796-2.6941 1.309-3.5981 1.7918-4.5021 2.2747m-2.9001 0.76262 18.994-8.6356" style="stroke-linecap:round;stroke-width:.83283;stroke:#000"/><path d="m149.43 192.2-0.12627 1.7354c1.019 0.0741 2.4694 0.094 3.9754 0.15922 1.1426 0.0495 2.2729 0.1297 3.2136 0.30759 0.42753 0.081 0.80746 0.18034 1.1446 0.30882 0.32921 0.12543 0.62984 0.283 0.9056 0.49255 0.27778 0.21108 0.53779 0.48061 0.77826 0.83365 0.24604 0.36126 0.46458 0.79988 0.65567 1.327 0.19912 0.54926 0.3633 1.1813 0.49957 1.8556 0.14626 0.72361 0.25996 1.4939 0.34973 2.2539 0.22217 1.8809 0.3226 3.9253 0.34294 5.1369-0.0219-1.3052 0.0349-3.177 0.0356-5.1591 3e-4 -0.76787-0.0101-1.5611-0.0464-2.3159-0.0338-0.70125-0.0906-1.391-0.18749-2.0205-0.0931-0.6056-0.22477-1.1687-0.41301-1.6875-0.18546-0.51114-0.42561-0.97873-0.73756-1.4057-0.31271-0.42801-0.68523-0.79815-1.1166-1.1217-0.43773-0.3283-0.9238-0.59933-1.4432-0.83031-1.1101-0.49369-2.4176-0.82253-3.6083-1.0537-1.543-0.29957-3.1534-0.48321-4.0959-0.55182l-0.12627 1.7354z"/><path d="m160.51 197.13c0.15394 1.1657 0.30788 2.3314 0.41957 3.4873 0.11168 1.1559 0.18112 2.3019 0.19763 3.3517 0.0164 1.0498-0.0199 2.0035-0.0563 2.9571" style="stroke-linecap:round;stroke-width:.83283;stroke:#000"/><path d="m161.05 207.11c-3.4165-3.6049-6.833-7.2099-8.9105-9.3676-2.0775-2.1578-2.816-2.8683-3.5546-3.5789m-1.6215-2.5225 14.082 15.396" style="stroke-linecap:round;stroke-width:.83283;stroke:#000"/><path d="m146.57 194.39s-1.6895 0.41613-1.6895 0.41613c0.24435 0.99209 0.67374 2.3776 1.077 3.8301 0.30596 1.102 0.57907 2.2017 0.70049 3.1513 0.0552 0.43161 0.078 0.82367 0.06 1.184-0.0175 0.35187-0.0746 0.68647-0.1886 1.0135-0.11483 0.32942-0.29089 0.66-0.55236 0.99778-0.26755 0.34565-0.61717 0.68901-1.0594 1.0337-0.46084 0.35909-1.0112 0.71056-1.6104 1.0485-0.643 0.3627-1.3405 0.70887-2.0356 1.0291-1.7201 0.7925-3.6334 1.5198-4.7795 1.9135 1.2345-0.42415 3.0323-0.94852 4.9176-1.5603 0.73037-0.23702 1.4816-0.49202 2.1882-0.75977 0.65652-0.24876 1.2949-0.51606 1.8637-0.80268 0.54717-0.27574 1.042-0.57492 1.4772-0.91427 0.42881-0.33434 0.7993-0.70721 1.109-1.1358 0.31042-0.42966 0.54733-0.89833 0.72173-1.4085 0.17696-0.51776 0.28453-1.0638 0.34372-1.6291 0.12653-1.2083 0.0352-2.5535-0.1129-3.7573-0.19189-1.56-0.51489-3.1483-0.74091-4.066l-1.6895 0.41615z"/><path d="m145.3 206.45c-1.0611 0.50663-2.1222 1.0133-3.187 1.4767-1.0648 0.46341-2.1332 0.88357-3.1266 1.2237-0.99335 0.3401-1.9116 0.60014-2.8298 0.86017" style="stroke-linecap:round;stroke-width:.83283;stroke:#000"/><path d="m135.98 210.04c2.3727-4.3633 4.7455-8.7265 6.1556-11.369 1.4102-2.6426 1.8577-3.5646 2.3053-4.4865m1.898-2.3216-10.291 18.151" style="stroke-linecap:round;stroke-width:.83283;stroke:#000"/><path d="m143.6 192.34-0.91786-1.4782c-0.86802 0.53897-2.053 1.3755-3.3098 2.2079-0.95347 0.63153-1.915 1.2311-2.7806 1.64-0.39343 0.18587-0.75925 0.32872-1.1075 0.42297-0.34007 0.092-0.67589 0.14125-1.0222 0.13381-0.34881-7e-3 -0.71757-0.0727-1.1196-0.21699-0.41141-0.14765-0.84602-0.37404-1.3104-0.68819-0.48393-0.32731-0.98829-0.74215-1.4948-1.2075-0.54366-0.49946-1.0884-1.0558-1.6078-1.6179-1.2853-1.391-2.5682-2.986-3.2969-3.9543 0.78489 1.043 1.8391 2.5908 3.0036 4.1947 0.45111 0.62138 0.92576 1.257 1.3988 1.8463 0.43946 0.54752 0.89095 1.072 1.3393 1.5244 0.43133 0.43517 0.86877 0.81335 1.326 1.1224 0.45047 0.3045 0.91959 0.54163 1.4229 0.7037 0.50456 0.16246 1.0235 0.24295 1.5626 0.25114 0.5471 8e-3 1.0996-0.0581 1.6556-0.17654 1.1882-0.25308 2.4394-0.75561 3.5385-1.2684 1.4244-0.66455 2.8351-1.4626 3.638-1.9611l-0.91785-1.4782z"/><path d="m131.74 194.86c-0.80974-0.85262-1.6195-1.7052-2.3892-2.5747-0.76978-0.86948-1.4996-1.7558-2.13-2.5954-0.63043-0.83965-1.1615-1.6326-1.6925-2.4255" style="stroke-linecap:round;stroke-width:.83283;stroke:#000"/><path d="m125.44 187.11c4.8829 0.9083 9.7658 1.8166 12.715 2.3411 2.949 0.52453 3.9642 0.66528 4.9793 0.80604m2.7945 1.0877s-20.442-4.178-20.442-4.178" style="stroke-linecap:round;stroke-width:.83283;stroke:#000"/><ellipse id="pinwheel-center" transform="rotate(29.551)" cx="221.7" cy="94.143" rx="3.316" ry="3.3159" style="stroke-width:.85391;stroke:#000"/></g></g></g></svg>
